<svg xmlns="http://www.w3.org/2000/svg" xmlns:xlink="http://www.w3.org/1999/xlink" width="170" zoomAndPan="magnify" viewBox="150 130 100 100" height="50" preserveAspectRatio="xMidYMid meet" version="1.0"><defs><g/><clipPath id="e7359cbaf2"><path d="M 76.875 142.28125 L 113.550781 142.28125 L 113.550781 218.03125 L 76.875 218.03125 Z M 76.875 142.28125 " clip-rule="nonzero"/></clipPath><clipPath id="c66135564e"><path d="M 36.730469 157.703125 L 73.480469 157.703125 L 73.480469 232.703125 L 36.730469 232.703125 Z M 36.730469 157.703125 " clip-rule="nonzero"/></clipPath><clipPath id="97b5975ee0"><path d="M 73 179 L 73.480469 179 L 73.480469 218 L 73 218 Z M 73 179 " clip-rule="nonzero"/></clipPath></defs><rect x="-37.5" width="450" fill="transparent" y="-37.499999" height="449.999989" fill-opacity="1"/><rect x="-37.5" width="450" fill="transparent" y="-37.499999" height="449.999989" fill-opacity="1"/><path stroke-linecap="round" transform="matrix(0, 0.75, -0.75, 0, 120.242956, 142.277335)" fill="none" stroke-linejoin="miter" d="M 0.500011 0.501024 L 120.104186 0.501024 " stroke="#191919" stroke-width="1" stroke-opacity="1" stroke-miterlimit="4"/><g fill="#0e1c30" fill-opacity="1"><g transform="translate(126.090128, 178.404291)"><g><path d="M 5.46875 0 L 3.484375 0 C 2.992188 0 2.75 -0.242188 2.75 -0.734375 L 2.75 -26.765625 C 2.75 -27.210938 2.835938 -27.539062 3.015625 -27.75 C 3.191406 -27.96875 3.421875 -28.050781 3.703125 -28 C 3.984375 -27.957031 4.257812 -27.765625 4.53125 -27.421875 L 20.34375 -7.546875 L 20.34375 -26.65625 C 20.34375 -27.144531 20.585938 -27.390625 21.078125 -27.390625 L 23.078125 -27.390625 C 23.554688 -27.390625 23.796875 -27.144531 23.796875 -26.65625 L 23.796875 -0.625 C 23.796875 -0.1875 23.703125 0.132812 23.515625 0.34375 C 23.335938 0.5625 23.109375 0.644531 22.828125 0.59375 C 22.546875 0.539062 22.265625 0.34375 21.984375 0 L 6.1875 -19.984375 L 6.1875 -0.734375 C 6.1875 -0.242188 5.945312 0 5.46875 0 Z M 5.46875 0 "/></g></g></g><g fill="#0e1c30" fill-opacity="1"><g transform="translate(152.6745, 178.404291)"><g><path d="M 16.6875 0 L 3.4375 0 C 2.945312 0 2.703125 -0.242188 2.703125 -0.734375 L 2.703125 -26.65625 C 2.703125 -27.144531 2.945312 -27.390625 3.4375 -27.390625 L 16.6875 -27.390625 C 17.175781 -27.390625 17.421875 -27.144531 17.421875 -26.65625 L 17.421875 -24.859375 C 17.421875 -24.367188 17.175781 -24.125 16.6875 -24.125 L 6.203125 -24.125 L 6.203125 -11.953125 L 15.265625 -11.953125 C 15.753906 -11.953125 16 -11.707031 16 -11.21875 L 16 -9.484375 C 16 -8.992188 15.753906 -8.75 15.265625 -8.75 L 6.203125 -8.75 L 6.203125 -3.265625 L 16.6875 -3.265625 C 17.175781 -3.265625 17.421875 -3.019531 17.421875 -2.53125 L 17.421875 -0.734375 C 17.421875 -0.242188 17.175781 0 16.6875 0 Z M 16.6875 0 "/></g></g></g><g fill="#0e1c30" fill-opacity="1"><g transform="translate(171.520697, 178.404291)"><g><path d="M 4 0 L 1.4375 0 C 1.144531 0 0.953125 -0.0820312 0.859375 -0.25 C 0.773438 -0.425781 0.8125 -0.632812 0.96875 -0.875 L 9.390625 -13.8125 L 1.125 -26.515625 C 0.96875 -26.753906 0.929688 -26.957031 1.015625 -27.125 C 1.109375 -27.300781 1.304688 -27.390625 1.609375 -27.390625 L 4.15625 -27.390625 C 4.34375 -27.390625 4.507812 -27.351562 4.65625 -27.28125 C 4.800781 -27.21875 4.925781 -27.09375 5.03125 -26.90625 L 11.5 -16.4375 L 17.96875 -26.90625 C 18.082031 -27.09375 18.207031 -27.21875 18.34375 -27.28125 C 18.488281 -27.351562 18.65625 -27.390625 18.84375 -27.390625 L 21.390625 -27.390625 C 21.691406 -27.390625 21.890625 -27.300781 21.984375 -27.125 C 22.078125 -26.957031 22.039062 -26.753906 21.875 -26.515625 L 13.609375 -13.8125 L 22.03125 -0.875 C 22.195312 -0.632812 22.234375 -0.425781 22.140625 -0.25 C 22.046875 -0.0820312 21.851562 0 21.5625 0 L 19 0 C 18.8125 0 18.644531 -0.03125 18.5 -0.09375 C 18.363281 -0.164062 18.242188 -0.296875 18.140625 -0.484375 L 11.5 -11.203125 L 4.875 -0.484375 C 4.757812 -0.296875 4.628906 -0.164062 4.484375 -0.09375 C 4.347656 -0.03125 4.1875 0 4 0 Z M 4 0 "/></g></g></g><g fill="#ca9b31" fill-opacity="1"><g transform="translate(126.090128, 222.097807)"><g><path d="M 8.203125 0 L 3.4375 0 C 2.945312 0 2.703125 -0.242188 2.703125 -0.734375 L 2.703125 -26.65625 C 2.703125 -27.144531 2.945312 -27.390625 3.4375 -27.390625 L 8.203125 -27.390625 C 8.691406 -27.390625 8.9375 -27.144531 8.9375 -26.65625 L 8.9375 -14.484375 L 19.578125 -14.484375 L 19.578125 -26.65625 C 19.578125 -27.144531 19.820312 -27.390625 20.3125 -27.390625 L 25.09375 -27.390625 C 25.570312 -27.390625 25.8125 -27.144531 25.8125 -26.65625 L 25.8125 -0.734375 C 25.8125 -0.242188 25.570312 0 25.09375 0 L 20.3125 0 C 19.820312 0 19.578125 -0.242188 19.578125 -0.734375 L 19.578125 -9.09375 L 8.9375 -9.09375 L 8.9375 -0.734375 C 8.9375 -0.242188 8.691406 0 8.203125 0 Z M 8.203125 0 "/></g></g></g><g fill="#ca9b31" fill-opacity="1"><g transform="translate(154.635789, 222.097807)"><g><path d="M 16.265625 0.703125 C 14.097656 0.703125 12.113281 0.363281 10.3125 -0.3125 C 8.519531 -1 6.972656 -1.972656 5.671875 -3.234375 C 4.367188 -4.503906 3.363281 -6.019531 2.65625 -7.78125 C 1.945312 -9.550781 1.59375 -11.519531 1.59375 -13.6875 C 1.59375 -15.863281 1.945312 -17.832031 2.65625 -19.59375 C 3.363281 -21.363281 4.367188 -22.878906 5.671875 -24.140625 C 6.972656 -25.410156 8.519531 -26.382812 10.3125 -27.0625 C 12.113281 -27.738281 14.097656 -28.078125 16.265625 -28.078125 C 18.421875 -28.078125 20.398438 -27.738281 22.203125 -27.0625 C 24.003906 -26.382812 25.554688 -25.410156 26.859375 -24.140625 C 28.171875 -22.878906 29.179688 -21.363281 29.890625 -19.59375 C 30.609375 -17.832031 30.96875 -15.863281 30.96875 -13.6875 C 30.96875 -11.519531 30.609375 -9.550781 29.890625 -7.78125 C 29.179688 -6.019531 28.171875 -4.503906 26.859375 -3.234375 C 25.554688 -1.972656 24.003906 -1 22.203125 -0.3125 C 20.398438 0.363281 18.421875 0.703125 16.265625 0.703125 Z M 16.265625 -5 C 17.492188 -5 18.625 -5.195312 19.65625 -5.59375 C 20.695312 -6 21.59375 -6.582031 22.34375 -7.34375 C 23.101562 -8.101562 23.691406 -9.019531 24.109375 -10.09375 C 24.523438 -11.164062 24.734375 -12.363281 24.734375 -13.6875 C 24.734375 -15.019531 24.523438 -16.222656 24.109375 -17.296875 C 23.691406 -18.367188 23.101562 -19.285156 22.34375 -20.046875 C 21.59375 -20.804688 20.695312 -21.382812 19.65625 -21.78125 C 18.625 -22.1875 17.492188 -22.390625 16.265625 -22.390625 C 15.023438 -22.390625 13.890625 -22.1875 12.859375 -21.78125 C 11.835938 -21.382812 10.945312 -20.804688 10.1875 -20.046875 C 9.4375 -19.285156 8.851562 -18.367188 8.4375 -17.296875 C 8.03125 -16.222656 7.828125 -15.019531 7.828125 -13.6875 C 7.828125 -12.375 8.035156 -11.179688 8.453125 -10.109375 C 8.867188 -9.035156 9.453125 -8.117188 10.203125 -7.359375 C 10.953125 -6.597656 11.84375 -6.015625 12.875 -5.609375 C 13.90625 -5.203125 15.035156 -5 16.265625 -5 Z M 16.265625 -5 "/></g></g></g><g fill="#ca9b31" fill-opacity="1"><g transform="translate(187.228834, 222.097807)"><g><path d="M 19.34375 -10.09375 L 24.28125 -0.875 C 24.414062 -0.613281 24.429688 -0.398438 24.328125 -0.234375 C 24.222656 -0.078125 24.035156 0 23.765625 0 L 18.3125 0 C 17.925781 0 17.644531 -0.179688 17.46875 -0.546875 L 13.140625 -9.125 L 8.96875 -9.125 L 8.96875 -0.734375 C 8.96875 -0.242188 8.722656 0 8.234375 0 L 3.4375 0 C 2.945312 0 2.703125 -0.242188 2.703125 -0.734375 L 2.703125 -26.65625 C 2.703125 -27.144531 2.945312 -27.390625 3.4375 -27.390625 L 13.65625 -27.390625 C 15.570312 -27.390625 17.171875 -27.160156 18.453125 -26.703125 C 19.742188 -26.242188 20.773438 -25.609375 21.546875 -24.796875 C 22.328125 -23.992188 22.882812 -23.046875 23.21875 -21.953125 C 23.5625 -20.867188 23.734375 -19.691406 23.734375 -18.421875 C 23.734375 -16.410156 23.351562 -14.691406 22.59375 -13.265625 C 21.84375 -11.847656 20.757812 -10.789062 19.34375 -10.09375 Z M 12.671875 -22 L 8.96875 -22 L 8.96875 -14.515625 L 12.671875 -14.515625 C 12.953125 -14.515625 13.289062 -14.523438 13.6875 -14.546875 C 14.09375 -14.566406 14.519531 -14.632812 14.96875 -14.75 C 15.414062 -14.875 15.832031 -15.070312 16.21875 -15.34375 C 16.601562 -15.625 16.914062 -16.003906 17.15625 -16.484375 C 17.40625 -16.972656 17.53125 -17.597656 17.53125 -18.359375 C 17.53125 -19.085938 17.414062 -19.679688 17.1875 -20.140625 C 16.957031 -20.597656 16.660156 -20.953125 16.296875 -21.203125 C 15.941406 -21.460938 15.546875 -21.648438 15.109375 -21.765625 C 14.671875 -21.878906 14.238281 -21.945312 13.8125 -21.96875 C 13.394531 -21.988281 13.015625 -22 12.671875 -22 Z M 12.671875 -22 "/></g></g></g><g fill="#ca9b31" fill-opacity="1"><g transform="translate(213.242649, 222.097807)"><g><path d="M 8.203125 0 L 3.4375 0 C 2.945312 0 2.703125 -0.242188 2.703125 -0.734375 L 2.703125 -26.65625 C 2.703125 -27.144531 2.945312 -27.390625 3.4375 -27.390625 L 8.203125 -27.390625 C 8.691406 -27.390625 8.9375 -27.144531 8.9375 -26.65625 L 8.9375 -0.734375 C 8.9375 -0.242188 8.691406 0 8.203125 0 Z M 8.203125 0 "/></g></g></g><g fill="#ca9b31" fill-opacity="1"><g transform="translate(224.88557, 222.097807)"><g><path d="M 11 -5.390625 L 23.53125 -5.390625 C 24.007812 -5.390625 24.25 -5.144531 24.25 -4.65625 L 24.25 -0.734375 C 24.25 -0.242188 24.007812 0 23.53125 0 L 1.546875 0 C 1.253906 0 1.054688 -0.0859375 0.953125 -0.265625 C 0.859375 -0.441406 0.882812 -0.644531 1.03125 -0.875 L 13.65625 -22 L 3.046875 -22 C 2.554688 -22 2.3125 -22.242188 2.3125 -22.734375 L 2.3125 -26.65625 C 2.3125 -27.144531 2.554688 -27.390625 3.046875 -27.390625 L 23.140625 -27.390625 C 23.441406 -27.390625 23.640625 -27.300781 23.734375 -27.125 C 23.828125 -26.957031 23.800781 -26.753906 23.65625 -26.515625 Z M 11 -5.390625 "/></g></g></g><g fill="#ca9b31" fill-opacity="1"><g transform="translate(250.239679, 222.097807)"><g><path d="M 16.265625 0.703125 C 14.097656 0.703125 12.113281 0.363281 10.3125 -0.3125 C 8.519531 -1 6.972656 -1.972656 5.671875 -3.234375 C 4.367188 -4.503906 3.363281 -6.019531 2.65625 -7.78125 C 1.945312 -9.550781 1.59375 -11.519531 1.59375 -13.6875 C 1.59375 -15.863281 1.945312 -17.832031 2.65625 -19.59375 C 3.363281 -21.363281 4.367188 -22.878906 5.671875 -24.140625 C 6.972656 -25.410156 8.519531 -26.382812 10.3125 -27.0625 C 12.113281 -27.738281 14.097656 -28.078125 16.265625 -28.078125 C 18.421875 -28.078125 20.398438 -27.738281 22.203125 -27.0625 C 24.003906 -26.382812 25.554688 -25.410156 26.859375 -24.140625 C 28.171875 -22.878906 29.179688 -21.363281 29.890625 -19.59375 C 30.609375 -17.832031 30.96875 -15.863281 30.96875 -13.6875 C 30.96875 -11.519531 30.609375 -9.550781 29.890625 -7.78125 C 29.179688 -6.019531 28.171875 -4.503906 26.859375 -3.234375 C 25.554688 -1.972656 24.003906 -1 22.203125 -0.3125 C 20.398438 0.363281 18.421875 0.703125 16.265625 0.703125 Z M 16.265625 -5 C 17.492188 -5 18.625 -5.195312 19.65625 -5.59375 C 20.695312 -6 21.59375 -6.582031 22.34375 -7.34375 C 23.101562 -8.101562 23.691406 -9.019531 24.109375 -10.09375 C 24.523438 -11.164062 24.734375 -12.363281 24.734375 -13.6875 C 24.734375 -15.019531 24.523438 -16.222656 24.109375 -17.296875 C 23.691406 -18.367188 23.101562 -19.285156 22.34375 -20.046875 C 21.59375 -20.804688 20.695312 -21.382812 19.65625 -21.78125 C 18.625 -22.1875 17.492188 -22.390625 16.265625 -22.390625 C 15.023438 -22.390625 13.890625 -22.1875 12.859375 -21.78125 C 11.835938 -21.382812 10.945312 -20.804688 10.1875 -20.046875 C 9.4375 -19.285156 8.851562 -18.367188 8.4375 -17.296875 C 8.03125 -16.222656 7.828125 -15.019531 7.828125 -13.6875 C 7.828125 -12.375 8.035156 -11.179688 8.453125 -10.109375 C 8.867188 -9.035156 9.453125 -8.117188 10.203125 -7.359375 C 10.953125 -6.597656 11.84375 -6.015625 12.875 -5.609375 C 13.90625 -5.203125 15.035156 -5 16.265625 -5 Z M 16.265625 -5 "/></g></g></g><g fill="#ca9b31" fill-opacity="1"><g transform="translate(282.832725, 222.097807)"><g><path d="M 8.0625 0 L 3.484375 0 C 2.992188 0 2.75 -0.242188 2.75 -0.734375 L 2.75 -26.765625 C 2.75 -27.390625 2.921875 -27.785156 3.265625 -27.953125 C 3.617188 -28.128906 4.039062 -27.988281 4.53125 -27.53125 L 20 -12.109375 L 20 -26.65625 C 20 -27.144531 20.242188 -27.390625 20.734375 -27.390625 L 25.3125 -27.390625 C 25.800781 -27.390625 26.046875 -27.144531 26.046875 -26.65625 L 26.046875 -0.640625 C 26.046875 -0.222656 25.957031 0.09375 25.78125 0.3125 C 25.601562 0.53125 25.367188 0.617188 25.078125 0.578125 C 24.785156 0.535156 24.460938 0.34375 24.109375 0 L 8.765625 -15.640625 L 8.765625 -0.734375 C 8.765625 -0.242188 8.53125 0 8.0625 0 Z M 8.0625 0 "/></g></g></g><g fill="#ca9b31" fill-opacity="1"><g transform="translate(311.628003, 222.097807)"><g><path d="M 10.953125 0.703125 C 9.617188 0.703125 8.238281 0.582031 6.8125 0.34375 C 5.394531 0.101562 3.847656 -0.296875 2.171875 -0.859375 C 1.703125 -1.035156 1.554688 -1.347656 1.734375 -1.796875 L 3.0625 -5.71875 C 3.21875 -6.164062 3.535156 -6.304688 4.015625 -6.140625 C 5.242188 -5.648438 6.457031 -5.273438 7.65625 -5.015625 C 8.863281 -4.765625 9.945312 -4.640625 10.90625 -4.640625 C 12.039062 -4.640625 12.953125 -4.835938 13.640625 -5.234375 C 14.328125 -5.628906 14.671875 -6.242188 14.671875 -7.078125 C 14.671875 -7.597656 14.484375 -8.066406 14.109375 -8.484375 C 13.734375 -8.910156 13.226562 -9.3125 12.59375 -9.6875 C 11.96875 -10.0625 11.265625 -10.4375 10.484375 -10.8125 C 9.703125 -11.195312 8.898438 -11.601562 8.078125 -12.03125 C 7.265625 -12.457031 6.488281 -12.921875 5.75 -13.421875 C 5.007812 -13.929688 4.347656 -14.503906 3.765625 -15.140625 C 3.191406 -15.773438 2.738281 -16.503906 2.40625 -17.328125 C 2.070312 -18.160156 1.90625 -19.117188 1.90625 -20.203125 C 1.90625 -21.617188 2.164062 -22.820312 2.6875 -23.8125 C 3.21875 -24.8125 3.925781 -25.625 4.8125 -26.25 C 5.707031 -26.882812 6.722656 -27.347656 7.859375 -27.640625 C 8.992188 -27.929688 10.164062 -28.078125 11.375 -28.078125 C 12.082031 -28.078125 12.851562 -28.023438 13.6875 -27.921875 C 14.53125 -27.816406 15.382812 -27.660156 16.25 -27.453125 C 17.125 -27.253906 17.972656 -27.015625 18.796875 -26.734375 C 19.253906 -26.578125 19.398438 -26.265625 19.234375 -25.796875 L 18.078125 -22.078125 C 17.910156 -21.609375 17.601562 -21.457031 17.15625 -21.625 C 16.238281 -21.976562 15.285156 -22.253906 14.296875 -22.453125 C 13.304688 -22.660156 12.390625 -22.765625 11.546875 -22.765625 C 10.929688 -22.765625 10.367188 -22.695312 9.859375 -22.5625 C 9.359375 -22.425781 8.960938 -22.203125 8.671875 -21.890625 C 8.378906 -21.585938 8.234375 -21.171875 8.234375 -20.640625 C 8.234375 -20.140625 8.378906 -19.691406 8.671875 -19.296875 C 8.972656 -18.910156 9.390625 -18.546875 9.921875 -18.203125 C 10.453125 -17.867188 11.066406 -17.53125 11.765625 -17.1875 C 12.460938 -16.851562 13.210938 -16.5 14.015625 -16.125 C 14.847656 -15.71875 15.675781 -15.257812 16.5 -14.75 C 17.320312 -14.25 18.078125 -13.660156 18.765625 -12.984375 C 19.453125 -12.316406 20 -11.519531 20.40625 -10.59375 C 20.8125 -9.675781 21.015625 -8.597656 21.015625 -7.359375 C 21.015625 -6.171875 20.828125 -5.128906 20.453125 -4.234375 C 20.078125 -3.347656 19.5625 -2.585938 18.90625 -1.953125 C 18.257812 -1.328125 17.507812 -0.816406 16.65625 -0.421875 C 15.800781 -0.0351562 14.882812 0.242188 13.90625 0.421875 C 12.925781 0.609375 11.941406 0.703125 10.953125 0.703125 Z M 10.953125 0.703125 "/></g></g></g><g clip-path="url(#e7359cbaf2)"><path fill="#0e1c30" d="M 100.453125 142.28125 C 98.816406 142.28125 98.109375 143.3125 97.523438 144.363281 L 73.195312 187.507812 L 88.730469 216.007812 C 89.269531 216.976562 90.105469 218.089844 91.785156 218.089844 L 102.707031 218.089844 C 103.363281 218.089844 103.890625 217.84375 104.15625 217.378906 C 104.445312 216.914062 104.4375 216.296875 104.132812 215.691406 L 88.71875 187.542969 C 88.707031 187.519531 88.707031 187.492188 88.71875 187.46875 L 112.929688 144.667969 C 113.230469 144.0625 113.238281 143.449219 112.953125 142.980469 C 112.671875 142.527344 112.152344 142.28125 111.496094 142.28125 Z M 100.453125 142.28125 " fill-opacity="1" fill-rule="nonzero"/></g><g clip-path="url(#c66135564e)"><path fill="#ca9b31" d="M 49.449219 232.703125 C 51.082031 232.703125 51.789062 231.675781 52.375 230.621094 L 76.691406 187.5 L 61.164062 159.015625 C 60.625 158.042969 59.789062 156.929688 58.113281 156.929688 L 47.195312 156.929688 C 46.539062 156.929688 46.011719 157.179688 45.746094 157.640625 C 45.457031 158.109375 45.460938 158.726562 45.769531 159.332031 L 61.175781 187.464844 C 61.1875 187.488281 61.1875 187.515625 61.175781 187.539062 L 36.976562 230.320312 C 36.675781 230.921875 36.667969 231.539062 36.953125 232.003906 C 37.234375 232.457031 37.75 232.703125 38.410156 232.703125 Z M 49.449219 232.703125 " fill-opacity="1" fill-rule="nonzero"/></g><g clip-path="url(#97b5975ee0)"><path fill="#ca9b31" d="M 95.367188 217.753906 C 96.027344 217.753906 96.542969 217.503906 96.820312 217.054688 C 97.109375 216.585938 97.101562 215.972656 96.796875 215.367188 L 89.359375 202.609375 C 89.347656 202.582031 89.347656 202.558594 89.359375 202.535156 L 101.003906 182.027344 C 101.304688 181.421875 101.308594 180.808594 101.019531 180.339844 C 100.742188 179.890625 100.226562 179.640625 99.570312 179.640625 L 88.613281 179.640625 C 86.976562 179.640625 86.242188 180.714844 85.683594 181.726562 L 73.84375 202.570312 C 73.890625 202.644531 81.386719 215.667969 81.386719 215.667969 C 81.929688 216.636719 82.765625 217.753906 84.441406 217.753906 Z M 95.367188 217.753906 " fill-opacity="1" fill-rule="nonzero"/></g></svg>